<svg width="32" height="24" viewBox="0 0 32 24" fill="none" xmlns="http://www.w3.org/2000/svg">
<path d="M22.2051 20.5195C22.041 20.5195 21.8828 20.4551 21.7598 20.332C21.5254 20.0859 21.5312 19.6934 21.7773 19.459L29.957 11.5547C30.2031 11.3203 30.5957 11.3262 30.8301 11.5723C31.0645 11.8183 31.0586 12.2109 30.8125 12.4453L22.6328 20.3496C22.5098 20.4609 22.3574 20.5195 22.2051 20.5195Z" fill="white"/>
<path d="M30.3848 12.6152C30.2324 12.6152 30.0742 12.5566 29.957 12.4394L21.7715 4.541C21.5254 4.30663 21.5195 3.91405 21.7539 3.66796C21.9883 3.42186 22.3809 3.416 22.627 3.65038L30.8066 11.5547C31.0527 11.7891 31.0586 12.1816 30.8242 12.4277C30.707 12.5566 30.543 12.6152 30.3848 12.6152Z" fill="white"/>
<path d="M9.79492 20.5195C9.64258 20.5195 9.48437 20.4609 9.36719 20.3437L1.1875 12.4453C0.941407 12.2109 0.935547 11.8183 1.16992 11.5723C1.4043 11.3262 1.79688 11.3203 2.04297 11.5547L10.2227 19.459C10.4687 19.6934 10.4746 20.0859 10.2402 20.332C10.1172 20.4609 9.95898 20.5195 9.79492 20.5195Z" fill="white"/>
<path d="M1.61523 12.6152C1.45117 12.6152 1.29297 12.5508 1.16992 12.4277C0.935547 12.1816 0.941407 11.7891 1.1875 11.5547L9.36719 3.65038C9.61328 3.416 10.0059 3.42186 10.2402 3.66796C10.4746 3.91405 10.4687 4.30663 10.2227 4.541L2.04883 12.4453C1.92578 12.5625 1.77344 12.6152 1.61523 12.6152Z" fill="white"/>
<path d="M13.0586 23.1387C13.0059 23.1387 12.9473 23.1328 12.8945 23.1152C12.5664 23.0215 12.373 22.6816 12.4668 22.3535L18.3437 1.31249C18.4375 0.984363 18.7773 0.791003 19.1055 0.884753C19.4336 0.978503 19.6269 1.31835 19.5332 1.64647L13.6562 22.6875C13.5801 22.9629 13.3281 23.1387 13.0586 23.1387Z" fill="white"/>
</svg>
